<svg xmlns="http://www.w3.org/2000/svg" viewBox="0 0 65 65">
  <path d="M31.94.01c-2.97 7.28-4.75 12.04-8.04 18.99 2.02 2.14 4.49 4.62 8.51 7.44-4.32-1.78-7.27-3.57-9.47-5.43C18.72 29.36 8.22 45.21.01 64.99c10.5-6.06 18.64-9.8 26.22-11.23-0.33-1.41-0.51-2.94-0.5-4.53l0.01-0.34c0.15-6.22 3.39-11 7.23-10.67 3.84.33 6.84 5.65 6.69 11.87-0.03.93-0.13 1.83-0.29 2.67 7.48 1.46 15.53 5.18 25.91 11.17-2.04-3.76-3.86-7.15-5.6-10.38-2.74-2.12-5.59-4.89-11.43-7.88 4.01 1.04 6.88 2.24 9.12 3.58-17.73-33-19.18-37.36-25.43-49.18z" fill="#1793D1"/>
</svg>
